<?xml version="1.0" encoding="UTF-8"?>
<svg version="1.1" xmlns="http://www.w3.org/2000/svg" width="1024" height="1024">
<path d="M0 0 C337.92 0 675.84 0 1024 0 C1024 337.92 1024 675.84 1024 1024 C686.08 1024 348.16 1024 0 1024 C0 686.08 0 348.16 0 0 Z " fill="#FAFAFA" transform="translate(0,0)"/>
<path d="M0 0 C3.37579345 2.67593384 6.58679084 5.52788342 9.78564453 8.41113281 C12.01752816 10.3918119 14.34024716 12.25321057 16.66601562 14.12207031 C21.73547977 18.24837834 26.67201376 22.51492749 31.60083008 26.80688477 C36.18178749 30.79398215 40.79834288 34.73511314 45.44238281 38.6484375 C49.45485787 42.03189014 53.43808875 45.44810739 57.41601562 48.87207031 C62.51121212 53.2539393 67.65889297 57.55961002 72.90039062 61.76660156 C75.53825647 63.95189239 77.99066986 66.28276725 80.36523438 68.75097656 C86.53949625 71.94456029 95.37653262 68.87091252 101.73242188 67.43847656 C102.83715347 67.1961882 103.94188507 66.95389984 105.08009338 66.70426941 C108.6730251 65.9139195 112.26318254 65.11163367 115.85351562 64.30957031 C118.33432047 63.76298067 120.81527875 63.21708701 123.29638672 62.671875 C134.59717241 60.17983462 145.88274244 57.63401082 157.13867188 54.94628906 C158.0302449 54.73472672 158.92181793 54.52316437 159.84040833 54.30519104 C163.92223403 53.33585303 167.99954405 52.35291638 172.07055664 51.33911133 C181.62154775 49.0142791 191.61025564 46.91213436 201.29101562 49.74707031 C201.99484375 48.7403125 202.69867187 47.73355469 203.42382812 46.69628906 C209.09189027 38.61322411 214.82511312 30.58130066 220.66601562 22.62207031 C221.23594238 21.84178467 221.80586914 21.06149902 222.39306641 20.25756836 C233.09407764 5.7347674 233.09407764 5.7347674 239.29101562 3.74707031 C245.95574145 2.83591732 251.05242677 3.25814231 256.57226562 7.25097656 C260.9183021 11.03400376 264.84254299 15.38874034 265.62695312 21.26269531 C265.63984375 22.16503906 265.65273438 23.06738281 265.66601562 23.99707031 C265.694375 24.88910156 265.72273438 25.78113281 265.75195312 26.70019531 C264.57753596 34.46329185 259.4237654 40.58914803 254.79101562 46.68457031 C253.5395409 48.3553417 252.28957073 50.02724099 251.04101562 51.70019531 C250.41453125 52.53873047 249.78804687 53.37726563 249.14257812 54.24121094 C245.8052838 58.7578234 242.58868493 63.35863417 239.375 67.96362305 C238.92447266 68.60759033 238.47394531 69.25155762 238.00976562 69.91503906 C237.57148437 70.54385986 237.13320313 71.17268066 236.68164062 71.82055664 C235.70257272 73.17691634 234.68851339 74.50835698 233.65039062 75.82006836 C230.66304983 79.59914337 228.65263712 82.23487612 228.29101562 87.18457031 C227.18384882 95.03242915 223.465798 99.97321985 217.47070312 104.95410156 C213.10910624 108.70333385 210.1416241 112.87603716 207.04101562 117.68457031 C205.91771378 119.37667002 204.79135262 121.06674237 203.66210938 122.75488281 C203.10120605 123.59438477 202.54030273 124.43388672 201.96240234 125.29882812 C198.99315423 129.64817373 195.80573855 133.82676266 192.61376953 138.01367188 C190.19246616 141.19641674 187.81427549 144.39429657 185.52929688 147.67675781 C185.08803467 148.30928467 184.64677246 148.94181152 184.19213867 149.59350586 C183.37510788 150.7722373 182.56471187 151.95561261 181.76293945 153.14477539 C178.15194374 158.34684396 173.60372917 163.16889193 167.29101562 164.74707031 C160.4450425 165.51828046 154.92773497 164.88389009 149.29101562 160.74707031 C144.22639607 155.99758264 141.30002202 151.4546872 140.91601562 144.43457031 C141.08891387 136.99994557 145.28435762 131.74127105 149.29101562 125.74707031 C147.95441895 126.1982019 147.95441895 126.1982019 146.59082031 126.65844727 C135.71316117 130.23926849 124.70127373 132.85411597 113.51708984 135.28686523 C110.52979994 135.93701126 107.54507164 136.59803015 104.56054688 137.26074219 C63.19595742 146.39319518 63.19595742 146.39319518 43.85351562 134.74707031 C38.60520889 131.16587277 33.72792727 127.12392745 28.83520508 123.078125 C20.95831427 116.58054236 12.76231078 110.51976083 4.56445312 104.43603516 C1.38170408 102.07153151 -1.78914693 99.6913374 -4.95898438 97.30957031 C-5.89226562 96.60960937 -6.82554687 95.90964844 -7.78710938 95.18847656 C-8.42132813 94.7128125 -9.05554688 94.23714844 -9.70898438 93.74707031 C-12.82681392 101.50579982 -15.04134021 109.52338036 -17.34179688 117.55175781 C-17.78318533 119.0826258 -18.22491249 120.61339616 -18.66696167 122.14407349 C-19.82328409 126.15048076 -20.97615047 130.15787293 -22.12792969 134.16558838 C-23.97757585 140.60081567 -25.83081496 147.035003 -27.68728256 153.46826553 C-28.33437989 155.71352282 -28.97894826 157.95949553 -29.62332153 160.20553589 C-30.01782588 161.57471496 -30.41242321 162.94386724 -30.80712891 164.31298828 C-31.15115753 165.51019501 -31.49518616 166.70740173 -31.84963989 167.94088745 C-32.70898438 170.74707031 -32.70898438 170.74707031 -33.70898438 172.74707031 C-32.97883023 172.74338314 -32.24867609 172.73969597 -31.49639606 172.73589706 C-13.68321947 172.64733966 4.12991285 172.58126068 21.94326305 172.53982162 C30.55787783 172.51924641 39.17234514 172.49122294 47.78686523 172.4453125 C55.30028444 172.40528958 62.81359679 172.37960091 70.32711965 172.37071633 C74.30098511 172.36552757 78.27454502 172.35343901 82.248312 172.32415009 C85.99858961 172.29673577 89.7484396 172.28867696 93.49880791 172.29463959 C95.51096974 172.29303683 97.52308641 172.27165158 99.53512573 172.24938965 C116.39863012 172.32480727 129.39356563 178.6781121 142.40673828 188.94628906 C146.66628947 192.30509281 151.0697016 195.32832653 155.61132812 198.29785156 C160.65364598 201.62205708 165.58842389 205.10388282 170.54101562 208.55957031 C177.11116288 213.14156309 183.68331656 217.71936303 190.29101562 222.24707031 C198.10958949 227.60587982 205.88737663 233.02302036 213.6640625 238.44238281 C214.60958984 239.10109375 215.55511719 239.75980469 216.52929688 240.43847656 C217.37532471 241.02830322 218.22135254 241.61812988 219.09301758 242.22583008 C220.81386674 243.41683432 222.54970055 244.5861936 224.29101562 245.74707031 C223.19810774 249.15023398 222.01506583 252.49694452 220.70507812 255.82128906 C214.74110843 271.08838698 210.88117594 286.31110542 210.29101562 302.74707031 C208.16792256 302.88473485 206.04208766 302.98023927 203.91601562 303.05957031 C202.73265625 303.11757813 201.54929687 303.17558594 200.33007812 303.23535156 C190.50685113 302.66709607 181.65307941 294.85234095 173.77346802 289.50827026 C170.93746909 287.58584821 168.09157923 285.6782905 165.2462616 283.7696991 C163.71331653 282.74133864 162.18078267 281.71236496 160.64863586 280.68281555 C151.81237036 274.74644406 142.948524 268.85202885 134.06838989 262.98150635 C132.27269006 261.79295858 130.4784536 260.60219665 128.6857605 259.40911865 C126.15272015 257.72346603 123.61501492 256.04506009 121.07617188 254.36816406 C120.33565582 253.8731691 119.59513977 253.37817413 118.83218384 252.86817932 C104.35353243 243.34851651 91.49103561 240.29601606 74.3449707 240.31469727 C72.65863331 240.30566519 70.97230245 240.29533446 69.28598022 240.28381348 C64.73923828 240.25638699 60.1926214 240.24697859 55.6458075 240.24095941 C50.88253018 240.23153815 46.1193449 240.20533188 41.35612488 240.18095398 C32.3502291 240.13738811 23.3443513 240.10878038 14.33838242 240.0856306 C4.07950261 240.05852563 -6.17928415 240.01461748 -16.43809736 239.96934187 C-37.52834288 239.87663766 -58.61861625 239.80489197 -79.70898438 239.74707031 C-80.23065186 238.67618164 -80.75231934 237.60529297 -81.28979492 236.50195312 C-81.99567025 235.06790548 -82.70182111 233.63399344 -83.40820312 232.20019531 C-83.74944214 231.49781738 -84.09068115 230.79543945 -84.44226074 230.07177734 C-96.10762864 206.48256692 -115.7772661 190.41541606 -137.70898438 176.74707031 C-135.7065663 169.01824588 -133.34562007 161.4793092 -130.71679688 153.94238281 C-130.14382622 152.28603317 -130.14382622 152.28603317 -129.5592804 150.59622192 C-128.32113214 147.02023893 -127.07772183 143.44611281 -125.83398438 139.87207031 C-124.96666264 137.37181958 -124.09955844 134.87149337 -123.23266602 132.37109375 C-117.30594045 115.2887536 -111.34824972 98.21741468 -105.32206726 81.16990662 C-103.30812607 75.46479911 -101.31624416 69.75217919 -99.32926941 64.03762817 C-97.71522043 59.39931231 -96.09456783 54.76331658 -94.47317505 50.12756348 C-93.68233187 47.86169946 -92.89423144 45.59487597 -92.10910034 43.32702637 C-78.73043524 4.69969746 -78.73043524 4.69969746 -59.70898438 -6.25292969 C-40.54132695 -15.53947568 -17.08284403 -12.52416508 0 0 Z " fill="#000000" transform="translate(398.708984375,384.2529296875)"/>
<path d="M0 0 C2.76199787 2.1874072 5.37840594 4.45994772 7.97265625 6.84375 C8.46217773 7.29089355 8.95169922 7.73803711 9.45605469 8.19873047 C30.81412395 27.92481029 42.70483581 54.19395192 44.2265625 83.1640625 C45.27260973 113.09369265 35.47761527 141.20546423 15.97265625 163.84375 C15.37195313 164.58882812 14.77125 165.33390625 14.15234375 166.1015625 C-1.94354934 185.43010358 -28.28158593 198.09151512 -53.02734375 200.84375 C-67.13198869 201.46935925 -81.39312069 201.91090807 -95.02734375 197.84375 C-95.68814941 197.65039062 -96.34895508 197.45703125 -97.02978516 197.2578125 C-112.33410897 192.66970154 -126.0010427 185.4104487 -138.02734375 174.84375 C-138.83300781 174.18117188 -139.63867188 173.51859375 -140.46875 172.8359375 C-161.52384402 154.97700016 -174.99337819 127.76752933 -177.32910156 100.29443359 C-177.46258015 96.72165682 -177.49521046 93.16882765 -177.46484375 89.59375 C-177.45727051 88.33030762 -177.44969727 87.06686523 -177.44189453 85.76513672 C-176.92175445 56.06399911 -163.84952135 28.91446902 -142.75537109 8.15869141 C-103.83804891 -28.72645856 -43.09635668 -30.6957276 0 0 Z " fill="#000000" transform="translate(264.02734375,588.15625)"/>
<path d="M0 0 C1.03019652 0.87817477 2.0578211 1.75938191 3.08203125 2.64453125 C3.84128906 3.30066406 4.60054687 3.95679688 5.3828125 4.6328125 C24.14182158 22.18883904 35.02157552 49.10402417 36.26953125 74.453125 C37.03098393 106.34778724 26.2649909 134.71447639 4.33203125 157.83203125 C-18.39911981 179.64403779 -46.79478522 187.50877471 -77.7734375 187.01953125 C-105.53036403 185.98423893 -131.06581897 172.69681789 -149.91796875 152.64453125 C-161.16064076 140.14919383 -168.34651209 125.74852631 -172.91796875 109.64453125 C-173.23765625 108.63132812 -173.55734375 107.618125 -173.88671875 106.57421875 C-181.11804867 79.85847211 -175.35439243 50.18214993 -162.10546875 26.39453125 C-158.35211204 19.92776349 -153.9159533 14.19401755 -148.91796875 8.64453125 C-148.2321875 7.87625 -147.54640625 7.10796875 -146.83984375 6.31640625 C-108.09882159 -34.72038019 -42.29211958 -35.16464285 0 0 Z " fill="#000000" transform="translate(806.91796875,609.35546875)"/>
<path d="M0 0 C5.28059774 1.09253746 7.85400215 4.04756575 11.625 7.75 C13.18206499 9.15189356 14.74486864 10.54743206 16.3125 11.9375 C21.89995082 16.97816664 27.42499189 22.08547449 32.94726562 27.19726562 C48.61074315 41.71938934 48.61074315 41.71938934 64.4375 56.0625 C69.39341265 60.50600811 74.25164734 65.0510393 79.09692383 69.61450195 C82.21213215 72.53885511 85.35940156 75.40956735 88.5859375 78.2109375 C93.39239257 82.38909779 98.00224473 86.76555409 102.625 91.14453125 C106.59121609 94.88609838 110.62374359 98.52717576 114.74072266 102.10205078 C117.47876348 104.49668353 120.14835342 106.96130027 122.8125 109.4375 C123.9374939 110.47917326 125.06249408 111.52083973 126.1875 112.5625 C127.33333333 113.625 128.47916667 114.6875 129.625 115.75 C136.41312991 122.03762263 143.21618527 128.30348599 150.10546875 134.48046875 C154.46191166 138.40464446 158.77513444 142.37602828 163.09277344 146.34277344 C165.60177112 148.64708552 168.11350468 150.94841091 170.625 153.25 C171.62501352 154.16665192 172.62501351 155.0833186 173.625 156 C174.12 156.45375 174.615 156.9075 175.125 157.375 C176.625 158.75 178.125 160.125 179.625 161.5 C180.11991943 161.95366943 180.61483887 162.40733887 181.12475586 162.87475586 C182.12559668 163.79220685 183.12641045 164.70968736 184.12719727 165.62719727 C186.61411261 167.90710551 189.10148315 170.18651293 191.58984375 172.46484375 C197.32755956 177.71938349 203.05245017 182.98746288 208.76708984 188.26708984 C213.87636861 192.98581162 219.00259609 197.68585587 224.13232422 202.38232422 C225.65314876 203.77579152 227.17247324 205.17087751 228.69140625 206.56640625 C229.19768555 207.03111328 229.70396484 207.49582031 230.22558594 207.97460938 C231.23638571 208.9031724 232.24616387 209.83284882 233.25488281 210.76367188 C235.5900483 212.91282352 237.94548654 215.02463725 240.35546875 217.08984375 C249.96310577 225.36026049 259.72884178 237.527655 260.78613281 250.76782227 C261.10551465 268.25026392 259.43530107 280.82844409 246.875 294 C236.66310985 303.75258474 224.85263089 308.88935582 210.72338867 308.86352539 C209.71279892 308.86374443 209.71279892 308.86374443 208.68179321 308.8639679 C206.46881826 308.86327472 204.25592889 308.85551036 202.04296875 308.84765625 C200.50311835 308.84578995 198.96326735 308.84436705 197.42341614 308.84336853 C193.38089341 308.83956002 189.33840691 308.82974402 185.29589844 308.81866455 C181.16667165 308.80841455 177.03743898 308.80386323 172.90820312 308.79882812 C164.8137855 308.7881202 156.71939727 308.77106386 148.625 308.75 C149.33601745 304.16454 150.45381738 300.06835075 152 295.6875 C160.27024135 271.62563258 161.26715389 246.34288861 154.625 221.75 C154.44308105 221.07291992 154.26116211 220.39583984 154.07373047 219.69824219 C147.78636378 197.18958183 135.0655563 179.0600757 118.625 162.75 C117.95082031 162.06679688 117.27664063 161.38359375 116.58203125 160.6796875 C99.52906084 144.34114026 77.43748487 135.40108915 54.625 130.75 C53.71387451 130.55664062 52.80274902 130.36328125 51.86401367 130.1640625 C47.98449411 129.6681203 44.2833689 129.90125766 40.40234375 130.1796875 C12.98408824 131.69493255 12.98408824 131.69493255 6.68359375 126.87109375 C3.81031395 123.85622737 1.73569242 120.45489163 -0.21386719 116.78955078 C-2.09135008 113.49171813 -4.60045912 110.81227689 -7.125 108 C-10.47429999 104.06779758 -13.74735761 100.0748426 -17 96.0625 C-19.86926557 92.53463077 -22.81405693 89.11280078 -25.875 85.75 C-30.57606369 80.57142021 -35.08519024 75.27527497 -39.375 69.75 C-39.85453125 69.14671875 -40.3340625 68.5434375 -40.828125 67.921875 C-43.82906597 63.56839725 -43.92105318 59.1037294 -44.1015625 54.0078125 C-42.34973538 46.15284574 -35.77944034 39.52240348 -30.875 33.3125 C-29.64549558 31.74766115 -28.4163396 30.18254848 -27.1875 28.6171875 C-26.56101562 27.82022461 -25.93453125 27.02326172 -25.2890625 26.20214844 C-23.36240742 23.73386737 -21.45942763 21.2489937 -19.5625 18.7578125 C-18.94439453 17.95013428 -18.32628906 17.14245605 -17.68945312 16.31030273 C-16.5111702 14.76943463 -15.33770011 13.22486986 -14.16992188 11.67602539 C-6.27057806 1.39346179 -6.27057806 1.39346179 0 0 Z " fill="#000000" transform="translate(705.375,434.25)"/>
<path d="M0 0 C18.85854775 14.94360155 34.15832211 36.99148009 37.58203125 61.30859375 C37.8292517 63.89616783 37.9963422 66.46726305 38.125 69.0625 C29.76005927 67.07258981 21.56931651 64.72356965 13.375 62.125 C10.84555432 61.33167615 8.31576462 60.5395942 5.78515625 59.75 C5.11293533 59.54016983 4.44071442 59.33033966 3.74812317 59.114151 C-4.6540413 56.49859081 -13.07974306 53.96092965 -21.50769043 51.42990112 C-23.28224868 50.8968991 -25.05658475 50.36315676 -26.83068848 49.8286438 C-29.3409564 49.07256218 -31.85198955 48.31907954 -34.36328125 47.56640625 C-35.10494034 47.34279419 -35.84659943 47.11918213 -36.61073303 46.88879395 C-50.83769374 42.33457077 -50.83769374 42.33457077 -65.0625 45.125 C-72.05489097 48.97950123 -76.59792022 54.34572963 -78.875 62.0625 C-79.75562101 69.83588303 -79.22566988 76.45686561 -74.875 83.0625 C-68.56334562 90.13010964 -61.2709625 93.51520314 -52.5625 96.875 C-51.27278331 97.38857832 -49.98373317 97.90383325 -48.6953125 98.4206543 C-45.39557467 99.73885129 -42.08753664 101.0345065 -38.77581787 102.32226562 C-35.86406161 103.45618914 -32.9576955 104.60373105 -30.05078125 105.75 C-25.54869967 107.52086267 -21.04618711 109.29062377 -16.54296875 111.05859375 C-15.3420459 111.53022949 -14.14112305 112.00186523 -12.90380859 112.48779297 C-9.95952422 113.64130509 -7.01108823 114.7836889 -4.06103516 115.92236328 C0.22401743 117.5774839 4.50052393 119.25333477 8.77294922 120.94076538 C10.45878615 121.60243044 12.14743251 122.25698392 13.83886719 122.90420532 C16.20619122 123.81114239 18.56254049 124.74236795 20.91796875 125.6796875 C21.99083382 126.08073448 21.99083382 126.08073448 23.08537292 126.48988342 C25.05932617 127.29248047 25.05932617 127.29248047 28.125 129.0625 C29.65383197 132.73112036 29.19595407 133.87611922 27.75390625 137.6640625 C27.08266282 139.01408202 26.3928046 140.35495887 25.6875 141.6875 C25.32350098 142.39318115 24.95950195 143.0988623 24.58447266 143.82592773 C21.31735447 150.00394283 17.49831131 155.60958464 13.125 161.0625 C12.61195313 161.72765625 12.09890625 162.3928125 11.5703125 163.078125 C6.71852206 169.11008068 -0.12764434 175.38103721 -7.875 177.0625 C-17.68812672 177.88605814 -25.71952567 176.41953381 -34.8984375 173.06640625 C-36.10356491 172.64609131 -37.30869232 172.22577637 -38.55033875 171.79272461 C-41.79002988 170.6622983 -45.01973809 169.50565199 -48.24800491 168.34306717 C-51.62411936 167.13213665 -55.00863667 165.94515391 -58.39233398 164.75561523 C-63.89716354 162.81726183 -69.39672696 160.86463193 -74.89306641 158.90234375 C-82.29436829 156.26111688 -89.71308699 153.67156046 -97.13671875 151.09375 C-100.38100271 149.96269492 -103.62478748 148.83022646 -106.8682251 147.69674683 C-108.89069352 146.99052983 -110.91375203 146.28600015 -112.93743896 145.58328247 C-146.21485568 134.00113877 -146.21485568 134.00113877 -153.0625 120 C-155.9962498 113.18587713 -158.11715384 106.26290831 -159.875 99.0625 C-160.101875 98.14984375 -160.32875 97.2371875 -160.5625 96.296875 C-165.49874003 73.39820597 -160.20678961 47.86060385 -148.625 27.7734375 C-132.47752404 2.75926714 -109.62877661 -12.94414932 -80.875 -19.9375 C-53.03316201 -25.933616 -22.25073198 -17.01083206 0 0 Z " fill="#000000" transform="translate(509.875,214.9375)"/>
<path d="M0 0 C19.7241597 -0.09365465 39.44827395 -0.16408241 59.17261028 -0.20724869 C68.33202763 -0.22782887 77.4913064 -0.25586203 86.65063477 -0.30175781 C94.63869332 -0.34176531 102.62665146 -0.3674658 110.61480743 -0.37635398 C114.84017585 -0.3815453 119.06525714 -0.3936507 123.29053307 -0.42292023 C127.27718748 -0.45030992 131.26343971 -0.45839812 135.25017929 -0.45243073 C136.70410545 -0.45352054 138.15804673 -0.46133322 139.61189079 -0.4768219 C152.41327069 -0.60637659 163.48137406 1.66960521 174.25 8.75 C174.99048584 9.21897705 175.73097168 9.6879541 176.49389648 10.17114258 C179.00521125 11.76668967 181.50202379 13.38366245 184 15 C185.94309044 16.23972437 187.88714407 17.47794003 189.83203125 18.71484375 C195.14378162 22.09803569 200.44329029 25.49993683 205.74023438 28.90625 C210.03832498 31.66691694 214.34356693 34.41632054 218.64868164 37.16601562 C227.49009088 42.81512964 236.3206886 48.48071217 245.125 54.1875 C245.92397705 54.70401123 246.7229541 55.22052246 247.54614258 55.75268555 C262.15957473 65.24867104 262.15957473 65.24867104 264 71 C264 75.82516791 262.96803593 79.13894687 259.62488741 82.72504205 C253.49674198 87.53345383 245.38220628 87.42596756 237.97117615 87.36076355 C236.89359561 87.36332682 235.81601506 87.3658901 234.70578057 87.36853105 C231.1128625 87.37345296 227.52036927 87.35700188 223.92749023 87.34057617 C221.34491486 87.33972956 218.76233875 87.34020571 216.17976379 87.34190369 C210.62883078 87.34347255 205.078004 87.33410398 199.5270977 87.31719017 C191.50155416 87.29275204 183.47606171 87.28498999 175.450485 87.2812262 C162.42781704 87.27466924 149.40520563 87.25472865 136.38256836 87.22631836 C123.73641237 87.19875818 111.09027177 87.1775342 98.4440918 87.16479492 C97.66386347 87.16400675 96.88363514 87.16321858 96.07976352 87.16240653 C92.16537266 87.15849126 88.25098169 87.15470017 84.33659065 87.15097082 C51.89101927 87.11989846 19.44551722 87.06708332 -13 87 C-14.17817708 83.31881804 -13.61523298 81.63785122 -11.85253906 78.18115234 C-11.52995117 77.56449707 -11.20736328 76.9478418 -10.875 76.3125 C-0.08596489 54.30868864 2.74990285 29.45261681 0.48730469 5.21923828 C0.39632507 4.23883575 0.30534546 3.25843323 0.21160889 2.24832153 C0.14177795 1.50637543 0.07194702 0.76442932 0 0 Z " fill="#000000" transform="translate(329,656)"/>
<path d="M0 0 C2.34478447 0.44212547 4.68967637 0.88368148 7.03466797 1.32470703 C10.76522561 2.02668966 14.49560898 2.72953369 18.22546387 3.4352417 C27.26312984 5.1441322 36.30681288 6.81789021 45.35395622 8.47581291 C49.70893058 9.27490302 54.06296194 10.07911467 58.41695881 10.88351154 C61.94706162 11.5353781 65.47762431 12.18447484 69.00942993 12.82705688 C72.97944353 13.54962491 76.94676661 14.28609397 80.9140625 15.0234375 C82.66406303 15.33862083 82.66406303 15.33862083 84.44941711 15.66017151 C103.68729506 19.27177053 119.55221977 26.30996479 130.9375 42.8125 C138.78672493 56.15714165 141.66848684 72.52256899 145.54614258 87.35327148 C146.51006405 91.03847623 147.48201885 94.72149548 148.45507812 98.40429688 C149.07077732 100.74466943 149.68602857 103.08515989 150.30078125 105.42578125 C150.59132889 106.52771317 150.88187653 107.62964508 151.18122864 108.76496887 C151.44538071 109.77750229 151.70953278 110.79003571 151.98168945 111.83325195 C152.21531693 112.72510696 152.4489444 113.61696198 152.68965149 114.5358429 C153.1875 116.6875 153.1875 116.6875 153.1875 118.6875 C137.0175 118.6875 120.8475 118.6875 104.1875 118.6875 C100.8125 109.6875 100.8125 109.6875 99.58203125 104.875 C99.32099609 103.86308594 99.05996094 102.85117187 98.79101562 101.80859375 C98.52998047 100.77863281 98.26894531 99.74867188 98 98.6875 C97.59104492 97.09615234 97.59104492 97.09615234 97.17382812 95.47265625 C96.50778252 92.87858388 95.8457757 90.28355285 95.1875 87.6875 C94.11088104 87.68385437 93.03426208 87.68020874 91.92501831 87.67645264 C81.77256722 87.63949094 71.62041912 87.58170531 61.46819878 87.50359726 C56.24896879 87.46410961 51.02990785 87.43192737 45.81054688 87.41650391 C40.77234006 87.40134592 35.73459795 87.36691535 30.69659805 87.31919098 C28.77574836 87.30436838 26.85483233 87.29645848 24.93392563 87.29561615 C22.24044156 87.29324739 19.54824266 87.26617554 16.85498047 87.23339844 C16.06303787 87.2384288 15.27109528 87.24345917 14.45515442 87.24864197 C9.26305466 87.15106164 6.33197558 86.07574269 2.1875 82.6875 C0.58276367 80.67407227 0.58276367 80.67407227 -0.64453125 78.50390625 C-1.1240625 77.67375 -1.60359375 76.84359375 -2.09765625 75.98828125 C-2.60167969 75.08464844 -3.10570312 74.18101562 -3.625 73.25 C-4.7666209 71.26154293 -5.90856483 69.2732713 -7.05078125 67.28515625 C-7.95884521 65.68824951 -7.95884521 65.68824951 -8.88525391 64.05908203 C-11.95279419 58.6926352 -15.09092218 53.36798239 -18.22418213 48.03973389 C-19.31116947 46.18976446 -20.39597491 44.33853441 -21.47998047 42.48681641 C-26.58339899 33.76923523 -31.71450792 25.06835719 -36.87890625 16.38671875 C-37.37132812 15.5565625 -37.86375 14.72640625 -38.37109375 13.87109375 C-38.79704834 13.15493896 -39.22300293 12.43878418 -39.66186523 11.70092773 C-42.82276297 6.1698597 -42.82276297 6.1698597 -42.75 2.75 C-38.12290023 -12.3651926 -11.54417426 -2.19850606 0 0 Z " fill="#010101" transform="translate(81.8125,426.3125)"/>
<path d="M0 0 C9.11631507 7.51750096 14.25272252 17.02316505 17.62890625 28.22265625 C17.82226562 28.82078125 18.015625 29.41890625 18.21484375 30.03515625 C20.82306652 43.81444636 18.1331377 58.42763899 10.62890625 70.22265625 C7.83069841 73.77301394 4.82113393 77.02488651 1.62890625 80.22265625 C1.05140625 80.81175781 0.47390625 81.40085937 -0.12109375 82.0078125 C-9.6933826 91.0048436 -24.33171118 94.94602311 -37.2265625 94.57421875 C-53.98079893 92.7010743 -66.44623543 84.6432049 -77.18359375 71.97265625 C-85.90635008 60.28045095 -87.48150124 46.31303136 -86.37109375 32.22265625 C-83.97665683 19.1832369 -76.65116916 5.9347665 -65.75830078 -1.94384766 C-44.4334461 -15.94939966 -20.59357949 -15.43670291 0 0 Z " fill="#F9F9F9" transform="translate(231.37109375,636.77734375)"/>
<path d="M0 0 C1.5287374 1.15629023 3.05084317 2.32146754 4.5625 3.5 C5.449375 4.098125 6.33625 4.69625 7.25 5.3125 C17.47571087 14.98546974 22.41714943 28.02004376 22.875 41.875 C22.57752612 54.2989092 18.00669058 66.55266513 9.5 75.74609375 C-3.04136426 87.09906261 -16.07743934 91.51423443 -32.97265625 90.8828125 C-38.64503974 90.50520774 -43.39395732 89.12395008 -48.4375 86.5 C-49.28441406 86.07589844 -50.13132812 85.65179687 -51.00390625 85.21484375 C-63.60452562 78.30855008 -70.04740612 68.42522513 -75.4375 55.5 C-78.59696834 44.59189142 -77.63343767 30.48720729 -72.4375 20.5 C-72.01339844 19.65308594 -71.58929687 18.80617188 -71.15234375 17.93359375 C-64.89998881 6.52609379 -55.21486143 -1.76180129 -43.0625 -6.375 C-28.52904923 -10.21532639 -12.41278086 -8.45086837 0 0 Z " fill="#F9F9F9" transform="translate(764.4375,648.5)"/>
</svg>
